<?xml version="1.0" encoding="UTF-8" standalone="no"?>
<!-- Created with Inkscape (http://www.inkscape.org/) -->

<svg
   width="37mm"
   height="9mm"
   viewBox="0 0 37 9"
   version="1.1"
   id="svg5"
   inkscape:version="1.2.2 (732a01da63, 2022-12-09, custom)"
   sodipodi:docname="colide_fin.svg"
   xmlns:inkscape="http://www.inkscape.org/namespaces/inkscape"
   xmlns:sodipodi="http://sodipodi.sourceforge.net/DTD/sodipodi-0.dtd"
   xmlns="http://www.w3.org/2000/svg"
   xmlns:svg="http://www.w3.org/2000/svg">
  <sodipodi:namedview
     id="namedview7"
     pagecolor="#ffffff"
     bordercolor="#000000"
     borderopacity="0.25"
     inkscape:showpageshadow="2"
     inkscape:pageopacity="0.0"
     inkscape:pagecheckerboard="0"
     inkscape:deskcolor="#d1d1d1"
     inkscape:document-units="mm"
     showgrid="true"
     inkscape:zoom="8.7818453"
     inkscape:cx="71.568102"
     inkscape:cy="29.777341"
     inkscape:window-width="1850"
     inkscape:window-height="1016"
     inkscape:window-x="0"
     inkscape:window-y="0"
     inkscape:window-maximized="1"
     inkscape:current-layer="text169">
    <inkscape:grid
       type="xygrid"
       id="grid384"
       originx="0"
       originy="0" />
  </sodipodi:namedview>
  <defs
     id="defs2" />
  <g
     inkscape:label="Layer 1"
     inkscape:groupmode="layer"
     id="layer1">
    <g
       aria-label="[colide]"
       id="text169"
       style="font-size:8.5125px;font-family:FreeMono;-inkscape-font-specification:FreeMono;stroke-width:0.266015">
      <path
         d="M 0.80251297,0.94976121 V 6.4488361 H 1.6282254 q 0.2298375,0 0.2298375,0.17025 0,0.1787625 -0.2298375,0.1787625 H 0.45350048 V 0.60074872 H 1.6282254 q 0.2298375,0 0.2298375,0.17024999 0,0.1787625 -0.2298375,0.1787625 z"
         style="font-family:'Tlwg Mono';-inkscape-font-specification:'Tlwg Mono'"
         id="path1374" />
      <path
         d="M 7.1783622,2.5415987 V 2.4309362 q 0,-0.23835 0.1787625,-0.23835 0.17025,0 0.17025,0.23835 v 0.7746375 q 0,0.2298375 -0.17025,0.2298375 -0.153225,0 -0.1787625,-0.2043 -0.025537,-0.3405 -0.425625,-0.5703375 -0.391575,-0.23835 -0.9278625,-0.23835 -0.7065375,0 -1.1491875,0.44265 -0.4341375,0.4341375 -0.4341375,1.1321624 0,0.6724875 0.44265,1.106625 0.44265,0.425625 1.140675,0.425625 0.9278625,0 1.5918375,-0.6129 0.085125,-0.085125 0.153225,-0.085125 0.0681,0 0.1106625,0.051075 0.051075,0.042562 0.051075,0.1106625 0,0.17025 -0.3660375,0.4171125 -0.681,0.4681875 -1.5577875,0.4681875 -0.834225,0 -1.379025,-0.527775 -0.5362875,-0.527775 -0.5362875,-1.344975 0,-0.8427374 0.5533125,-1.3875374 0.5533125,-0.5448 1.4045625,-0.5448 0.7916625,0 1.32795,0.4681875 z"
         style="font-family:'Tlwg Mono';-inkscape-font-specification:'Tlwg Mono'"
         id="path1376" />
      <path
         d="m 10.838724,2.0734112 q 0.8172,0 1.379025,0.561825 0.561825,0.5533125 0.561825,1.3619999 0,0.78315 -0.570338,1.3364625 -0.570337,0.5448 -1.370512,0.5448 -0.808688,0 -1.379025,-0.5533125 -0.561825,-0.5533125 -0.561825,-1.3534875 0,-0.7831499 0.561825,-1.3364624 0.570337,-0.561825 1.379025,-0.561825 z m 0,0.3490125 q -0.663975,0 -1.1321626,0.4511625 -0.4596749,0.4511625 -0.4596749,1.0981124 0,0.64695 0.4596749,1.106625 0.4681876,0.4511625 1.1321626,0.4511625 0.655462,0 1.12365,-0.4511625 0.468187,-0.4511625 0.468187,-1.0810875 0,-0.6724874 -0.459675,-1.1236499 -0.459675,-0.4511625 -1.132162,-0.4511625 z"
         style="font-family:'Tlwg Mono';-inkscape-font-specification:'Tlwg Mono'"
         id="path1378" />
      <path
         d="M 16.116461,0.60074872 V 5.3932861 h 1.362 q 0.23835,0 0.23835,0.17025 0,0.1787625 -0.23835,0.1787625 h -3.073013 q -0.229837,0 -0.229837,-0.1787625 0,-0.17025 0.229837,-0.17025 h 1.362 V 0.94976121 h -0.995962 q -0.229838,0 -0.229838,-0.1787625 0,-0.17024999 0.229838,-0.17024999 z"
         style="fill:#800080"
         id="path1380" />
      <path
         d="m 21.223947,2.1925862 v 3.2006999 h 1.362 q 0.23835,0 0.23835,0.17025 0,0.1787625 -0.23835,0.1787625 h -3.073012 q -0.229838,0 -0.229838,-0.1787625 0,-0.17025 0.229838,-0.17025 h 1.362 V 2.5415987 H 19.87046 q -0.229838,0 -0.229838,-0.1787625 0,-0.17025 0.229838,-0.17025 z M 21.206922,0.43049872 V 1.3157987 H 20.704685 V 0.43049872 Z"
         style="fill:#800080"
         id="path1382" />
      <path
         d="M 27.880709,0.60074872 V 5.3932861 h 0.459675 q 0.229838,0 0.229838,0.17025 0,0.1787625 -0.229838,0.1787625 H 27.531697 V 4.9846861 q -0.604388,0.8938125 -1.549275,0.8938125 -0.757613,0 -1.302413,-0.561825 -0.536287,-0.561825 -0.536287,-1.344975 0,-0.7831499 0.536287,-1.3364624 0.5448,-0.561825 1.302413,-0.561825 0.936375,0 1.549275,0.8853 V 0.94976121 h -0.459675 q -0.229838,0 -0.229838,-0.1787625 0,-0.17024999 0.229838,-0.17024999 z m -1.87275,1.82167498 q -0.629925,0 -1.072575,0.4511625 -0.44265,0.4511625 -0.44265,1.0981124 0,0.6554625 0.44265,1.106625 0.44265,0.4511625 1.081088,0.4511625 0.629925,0 1.072575,-0.4511625 0.44265,-0.4511625 0.44265,-1.0896 0,-0.6639749 -0.44265,-1.1151374 -0.434138,-0.4511625 -1.081088,-0.4511625 z"
         style="font-family:'Tlwg Mono';-inkscape-font-specification:'Tlwg Mono'"
         id="path1384" />
      <path
         d="m 33.141421,4.0483111 h -3.5412 q 0.09364,0.6724875 0.561825,1.0810875 0.468187,0.4000875 1.1577,0.4000875 0.400087,0 0.8172,-0.1276875 0.417112,-0.1276875 0.672487,-0.3319875 0.08513,-0.059588 0.1362,-0.059588 0.0681,0 0.110663,0.051075 0.05107,0.051075 0.05107,0.119175 0,0.221325 -0.6129,0.459675 -0.604388,0.23835 -1.183238,0.23835 -0.859762,0 -1.46415,-0.57885 -0.595875,-0.57885 -0.595875,-1.4045625 0,-0.7746374 0.561825,-1.2938999 0.561825,-0.527775 1.379025,-0.527775 0.6129,0 1.0896,0.30645 0.485213,0.30645 0.71505,0.834225 0.144713,0.3405 0.144713,0.8342249 z m -3.5412,-0.3490125 h 3.183675 q -0.10215,-0.5788499 -0.536288,-0.9278624 -0.434137,-0.3490125 -1.05555,-0.3490125 -0.621412,0 -1.047037,0.3490125 -0.425625,0.3405 -0.5448,0.9278624 z"
         style="font-family:'Tlwg Mono';-inkscape-font-specification:'Tlwg Mono'"
         id="path1386" />
      <path
         d="M 36.197395,6.4488361 V 0.94976121 h -0.825712 q -0.229838,0 -0.229838,-0.17025 0,-0.17876249 0.229838,-0.17876249 h 1.174725 V 6.7978486 h -1.174725 q -0.229838,0 -0.229838,-0.17025 0,-0.1787625 0.229838,-0.1787625 z"
         style="font-family:'Tlwg Mono';-inkscape-font-specification:'Tlwg Mono'"
         id="path1388" />
    </g>
    <path
       id="rect10565-1"
       style="stroke:#000000;stroke-width:0.178548"
       d="m 10.753893,5.808774 h 0.171454 v 2.6714523 h -0.171454 z" />
  </g>
</svg>
